<svg width="29" height="25" viewBox="0 0 29 25" fill="none" xmlns="http://www.w3.org/2000/svg">
<path d="M1.26564 1.85185H1.03572C0.466072 1.85185 0 1.43519 0 0.925926C0 0.416667 0.466072 0 1.03572 0H3.10714C3.67679 0 4.14286 0.416667 4.14286 0.925926C4.14286 1.31019 3.87771 1.64074 3.50382 1.78056L3.79071 2.77778H25.6857C27.5086 2.77778 29 4.1037 29 5.78981L28.4614 13.6556C28.3061 15.9861 25.8514 17.2111 23.6454 17.3676L8.28364 18.45C8.31264 18.8907 7.96982 19.3093 7.453 19.4176C6.86057 19.5389 6.26814 19.2389 6.12521 18.7324L5.02321 14.9046C3.91707 15.2139 3.09368 16.2833 3.09368 17.4861V17.5926C3.09368 19.0815 4.34068 20.3704 5.82279 20.3704H27.9643C28.5308 20.3704 29 20.7241 29 21.2556C29 21.787 28.537 22.2222 27.9705 22.2222H25.375C25.787 22.2222 26.1822 22.3686 26.4735 22.629C26.7649 22.8895 26.9286 23.2428 26.9286 23.6111C26.9286 23.9795 26.7649 24.3327 26.4735 24.5932C26.1822 24.8537 25.787 25 25.375 25C24.963 25 24.5678 24.8537 24.2765 24.5932C23.9851 24.3327 23.8214 23.9795 23.8214 23.6111C23.8214 23.2428 23.9851 22.8895 24.2765 22.629C24.5678 22.3686 24.963 22.2222 25.375 22.2222H6.73214C7.14418 22.2222 7.53933 22.3686 7.83068 22.629C8.12203 22.8895 8.28572 23.2428 8.28572 23.6111C8.28572 23.9795 8.12203 24.3327 7.83068 24.5932C7.53933 24.8537 7.14418 25 6.73214 25C6.32011 25 5.92495 24.8537 5.6336 24.5932C5.34225 24.3327 5.17857 23.9795 5.17857 23.6111C5.17857 23.2428 5.34225 22.8895 5.6336 22.629C5.92495 22.3686 6.32011 22.2222 6.73214 22.2222H5.78032C3.16618 22.2222 1.03572 20.1444 1.03572 17.5926V17.4861C1.03572 15.3861 2.51057 13.6157 4.50639 13.1083L1.26564 1.85185ZM8.68343 12.037H10.3571V8.33333H7.65911L8.68343 12.037ZM7.40329 7.40741H10.3571V4.63611L8.3375 4.63796C7.4675 4.63796 6.83571 5.35648 7.04286 6.10278L7.40329 7.40741ZM11.3929 4.63518V7.40741H15.9293V4.62963L11.3929 4.63518ZM16.965 4.6287V7.40741H21.7293V4.62407L16.965 4.6287ZM22.765 4.62315V7.40741H26.8136L26.9286 5.73426C26.9286 5.11759 26.3693 4.61944 25.6754 4.61944L22.765 4.62315ZM26.7494 8.33333H22.765V12.037H26.4936L26.7494 8.33333ZM26.4304 12.963H22.765V15.5833L23.4693 15.5343C24.8571 15.4324 26.3071 14.7241 26.39 13.5444L26.4304 12.963ZM21.7293 15.6574V12.963H16.965V15.9926L21.7293 15.6574ZM15.9293 16.0648V12.963H11.3929V16.3148C11.3929 16.3389 11.3908 16.362 11.3866 16.3852L15.9293 16.0648ZM10.3571 16.2963V12.963H8.93925L9.6425 15.5065C9.68842 15.6774 9.77639 15.8369 9.90002 15.9736C10.0237 16.1102 10.1798 16.2204 10.3571 16.2963ZM15.9293 8.33333H11.3929V12.037H15.9293V8.33333ZM21.7293 8.33333H16.965V12.037H21.7293V8.33333Z" fill="black"/>
</svg>
