<svg width="35" height="21" viewBox="0 0 35 21" fill="none" xmlns="http://www.w3.org/2000/svg">
<path d="M5.3248 0C3.91257 0 2.55819 0.431033 1.5596 1.19828C0.561004 1.96552 0 3.00612 0 4.09117V16.8556C0 17.9407 0.561004 18.9813 1.5596 19.7485C2.55819 20.5157 3.91257 20.9468 5.3248 20.9468H28.7539C30.1661 20.9468 31.5205 20.5157 32.5191 19.7485C33.5177 18.9813 34.0787 17.9407 34.0787 16.8556V4.09117C34.0787 3.00612 33.5177 1.96552 32.5191 1.19828C31.5205 0.431033 30.1661 0 28.7539 0H5.3248ZM2.12992 4.09117C2.12992 3.44014 2.46652 2.81578 3.06568 2.35543C3.66483 1.89509 4.47746 1.63647 5.3248 1.63647H28.7539C29.6012 1.63647 30.4139 1.89509 31.013 2.35543C31.6122 2.81578 31.9488 3.44014 31.9488 4.09117V4.67375L17.0411 10.7025L2.12992 4.62335V4.09117ZM2.12992 6.47648L16.5401 12.3507C16.6933 12.4132 16.864 12.446 17.0374 12.4462C17.2109 12.4464 17.3817 12.4141 17.5352 12.3521L31.9488 6.52296V16.8556C31.9488 17.5066 31.6122 18.131 31.013 18.5913C30.4139 19.0517 29.6012 19.3103 28.7539 19.3103H5.3248C4.47746 19.3103 3.66483 19.0517 3.06568 18.5913C2.46652 18.131 2.12992 17.5066 2.12992 16.8556V6.47648Z" fill="white"/>
</svg>
