<svg width="38" height="35" viewBox="0 0 38 35" fill="none" xmlns="http://www.w3.org/2000/svg">
<g filter="url(#filter0_d_5_21)">
<path d="M10.75 20.5823L22 16.0399L27.25 6.30606L16 10.8485L10.75 20.5823ZM19 14.742C18.575 14.742 18.219 14.6175 17.932 14.3683C17.645 14.1191 17.501 13.8111 17.5 13.4442C17.499 13.0773 17.643 12.7693 17.932 12.5201C18.221 12.2709 18.577 12.1464 19 12.1464C19.423 12.1464 19.7795 12.2709 20.0695 12.5201C20.3595 12.7693 20.503 13.0773 20.5 13.4442C20.497 13.8111 20.353 14.1195 20.068 14.3696C19.783 14.6196 19.427 14.7438 19 14.742ZM19 26.4226C16.925 26.4226 14.975 26.0817 13.15 25.3999C11.325 24.7181 9.7375 23.7936 8.3875 22.6264C7.0375 21.4593 5.969 20.0857 5.182 18.5058C4.395 16.9259 4.001 15.2387 4 13.4442C3.999 11.6497 4.393 9.96252 5.182 8.38261C5.971 6.8027 7.0395 5.42915 8.3875 4.26195C9.7355 3.09476 11.323 2.17026 13.15 1.48846C14.977 0.80666 16.927 0.465759 19 0.465759C21.073 0.465759 23.023 0.80666 24.85 1.48846C26.677 2.17026 28.2645 3.09476 29.6125 4.26195C30.9605 5.42915 32.0295 6.8027 32.8195 8.38261C33.6095 9.96252 34.003 11.6497 34 13.4442C33.997 15.2387 33.603 16.9259 32.818 18.5058C32.033 20.0857 30.9645 21.4593 29.6125 22.6264C28.2605 23.7936 26.673 24.7186 24.85 25.4012C23.027 26.0839 21.077 26.4244 19 26.4226ZM19 23.827C22.35 23.827 25.1875 22.8211 27.5125 20.8095C29.8375 18.7978 31 16.3427 31 13.4442C31 10.5457 29.8375 8.09059 27.5125 6.07893C25.1875 4.06728 22.35 3.06145 19 3.06145C15.65 3.06145 12.8125 4.06728 10.4875 6.07893C8.1625 8.09059 7 10.5457 7 13.4442C7 16.3427 8.1625 18.7978 10.4875 20.8095C12.8125 22.8211 15.65 23.827 19 23.827Z" fill="black"/>
</g>
<defs>
<filter id="filter0_d_5_21" x="0" y="0.465759" width="38" height="33.9569" filterUnits="userSpaceOnUse" color-interpolation-filters="sRGB">
<feFlood flood-opacity="0" result="BackgroundImageFix"/>
<feColorMatrix in="SourceAlpha" type="matrix" values="0 0 0 0 0 0 0 0 0 0 0 0 0 0 0 0 0 0 127 0" result="hardAlpha"/>
<feOffset dy="4"/>
<feGaussianBlur stdDeviation="2"/>
<feComposite in2="hardAlpha" operator="out"/>
<feColorMatrix type="matrix" values="0 0 0 0 0 0 0 0 0 0 0 0 0 0 0 0 0 0 0.25 0"/>
<feBlend mode="normal" in2="BackgroundImageFix" result="effect1_dropShadow_5_21"/>
<feBlend mode="normal" in="SourceGraphic" in2="effect1_dropShadow_5_21" result="shape"/>
</filter>
</defs>
</svg>
