<svg width="37" height="33" viewBox="0 0 37 33" fill="none" xmlns="http://www.w3.org/2000/svg">
<g filter="url(#filter0_d_5_16)">
<path d="M17.0288 21.6769L17.0273 21.6757C13.2723 18.6307 10.2409 16.167 8.13656 13.8648C6.03824 11.5691 5 9.57901 5 7.50184C5 4.15071 7.952 1.37018 11.975 1.37018C14.2349 1.37018 16.3929 2.31595 17.7785 3.75968L18.5 4.51141L19.2215 3.75968C20.6071 2.31595 22.7651 1.37018 25.025 1.37018C29.048 1.37018 32 4.15071 32 7.50184C32 9.57901 30.9618 11.5691 28.8634 13.8648C26.7591 16.167 23.7277 18.6307 19.9727 21.6757L19.9712 21.6769L18.5 22.8745L17.0288 21.6769Z" stroke="black" stroke-width="2" shape-rendering="crispEdges"/>
</g>
<defs>
<filter id="filter0_d_5_16" x="0" y="0.370178" width="37" height="31.7938" filterUnits="userSpaceOnUse" color-interpolation-filters="sRGB">
<feFlood flood-opacity="0" result="BackgroundImageFix"/>
<feColorMatrix in="SourceAlpha" type="matrix" values="0 0 0 0 0 0 0 0 0 0 0 0 0 0 0 0 0 0 127 0" result="hardAlpha"/>
<feOffset dy="4"/>
<feGaussianBlur stdDeviation="2"/>
<feComposite in2="hardAlpha" operator="out"/>
<feColorMatrix type="matrix" values="0 0 0 0 0 0 0 0 0 0 0 0 0 0 0 0 0 0 0.25 0"/>
<feBlend mode="normal" in2="BackgroundImageFix" result="effect1_dropShadow_5_16"/>
<feBlend mode="normal" in="SourceGraphic" in2="effect1_dropShadow_5_16" result="shape"/>
</filter>
</defs>
</svg>
