<svg width="35" height="37" viewBox="0 0 35 37" fill="none" xmlns="http://www.w3.org/2000/svg">
<g filter="url(#filter0_d_5_23)">
<path d="M28.3166 11.5983C28.3166 11.2254 28.1744 10.8678 27.9212 10.6041C27.668 10.3405 27.3246 10.1923 26.9666 10.1923C26.6085 10.1923 26.2652 10.3405 26.012 10.6041C25.7588 10.8678 25.6166 11.2254 25.6166 11.5983H28.3166ZM9.41659 11.5983C9.41659 11.2254 9.27436 10.8678 9.02118 10.6041C8.76801 10.3405 8.42463 10.1923 8.06659 10.1923C7.70855 10.1923 7.36517 10.3405 7.11199 10.6041C6.85882 10.8678 6.71659 11.2254 6.71659 11.5983H9.41659ZM28.7121 15.4044C28.9668 15.6605 29.3078 15.8022 29.6617 15.799C30.0157 15.7958 30.3543 15.648 30.6046 15.3873C30.8549 15.1266 30.9969 14.7739 31 14.4053C31.003 14.0366 30.867 13.6815 30.621 13.4163L28.7121 15.4044ZM17.5166 1.75624L18.471 0.762186C18.2179 0.4986 17.8746 0.350525 17.5166 0.350525C17.1586 0.350525 16.8153 0.4986 16.5621 0.762186L17.5166 1.75624ZM4.41214 13.4163C4.2832 13.546 4.18035 13.7012 4.1096 13.8727C4.03885 14.0442 4.00161 14.2287 4.00005 14.4154C3.99849 14.6021 4.03265 14.7872 4.10053 14.96C4.16841 15.1328 4.26865 15.2898 4.39541 15.4218C4.52216 15.5538 4.67289 15.6582 4.8388 15.7289C5.00471 15.7996 5.18248 15.8352 5.36173 15.8336C5.54098 15.832 5.71813 15.7932 5.88284 15.7195C6.04754 15.6458 6.19651 15.5387 6.32104 15.4044L4.41214 13.4163ZM10.7666 28.4705H24.2666V25.6585H10.7666V28.4705ZM28.3166 24.2524V11.5983H25.6166V24.2524H28.3166ZM9.41659 24.2524V11.5983H6.71659V24.2524H9.41659ZM30.621 13.4163L18.471 0.762186L16.5621 2.75029L28.7121 15.4044L30.621 13.4163ZM16.5621 0.762186L4.41214 13.4163L6.32104 15.4044L18.471 2.75029L16.5621 0.762186ZM24.2666 28.4705C25.3407 28.4705 26.3709 28.0261 27.1304 27.2351C27.8899 26.444 28.3166 25.3711 28.3166 24.2524H25.6166C25.6166 24.6253 25.4744 24.983 25.2212 25.2467C24.968 25.5103 24.6246 25.6585 24.2666 25.6585V28.4705ZM10.7666 25.6585C10.4085 25.6585 10.0652 25.5103 9.812 25.2467C9.55882 24.983 9.41659 24.6253 9.41659 24.2524H6.71659C6.71659 25.3711 7.14328 26.444 7.90281 27.2351C8.66233 28.0261 9.69246 28.4705 10.7666 28.4705V25.6585Z" fill="black"/>
</g>
<defs>
<filter id="filter0_d_5_23" x="0" y="0.350525" width="35" height="36.1199" filterUnits="userSpaceOnUse" color-interpolation-filters="sRGB">
<feFlood flood-opacity="0" result="BackgroundImageFix"/>
<feColorMatrix in="SourceAlpha" type="matrix" values="0 0 0 0 0 0 0 0 0 0 0 0 0 0 0 0 0 0 127 0" result="hardAlpha"/>
<feOffset dy="4"/>
<feGaussianBlur stdDeviation="2"/>
<feComposite in2="hardAlpha" operator="out"/>
<feColorMatrix type="matrix" values="0 0 0 0 0 0 0 0 0 0 0 0 0 0 0 0 0 0 0.25 0"/>
<feBlend mode="normal" in2="BackgroundImageFix" result="effect1_dropShadow_5_23"/>
<feBlend mode="normal" in="SourceGraphic" in2="effect1_dropShadow_5_23" result="shape"/>
</filter>
</defs>
</svg>
