<svg width="34" height="21" viewBox="0 0 34 21" fill="none" xmlns="http://www.w3.org/2000/svg">
<path d="M5.3125 0C3.90354 0 2.55228 0.431033 1.556 1.19828C0.559708 1.96552 0 3.00612 0 4.09117V16.8556C0 17.9407 0.559708 18.9813 1.556 19.7485C2.55228 20.5157 3.90354 20.9468 5.3125 20.9468H28.6875C30.0965 20.9468 31.4477 20.5157 32.444 19.7485C33.4403 18.9813 34 17.9407 34 16.8556V4.09117C34 3.00612 33.4403 1.96552 32.444 1.19828C31.4477 0.431033 30.0965 0 28.6875 0H5.3125ZM2.125 4.09117C2.125 3.44014 2.46082 2.81578 3.0586 2.35543C3.65637 1.89509 4.46712 1.63647 5.3125 1.63647H28.6875C29.5329 1.63647 30.3436 1.89509 30.9414 2.35543C31.5392 2.81578 31.875 3.44014 31.875 4.09117V4.67375L17.0017 10.7025L2.125 4.62335V4.09117ZM2.125 6.47648L16.5019 12.3507C16.6547 12.4132 16.8251 12.446 16.9981 12.4462C17.1711 12.4464 17.3416 12.4141 17.4947 12.3521L31.875 6.52296V16.8556C31.875 17.5066 31.5392 18.131 30.9414 18.5913C30.3436 19.0517 29.5329 19.3103 28.6875 19.3103H5.3125C4.46712 19.3103 3.65637 19.0517 3.0586 18.5913C2.46082 18.131 2.125 17.5066 2.125 16.8556V6.47648Z" fill="black"/>
</svg>
