<svg width="26" height="24" viewBox="0 0 26 24" fill="none" xmlns="http://www.w3.org/2000/svg">
<path d="M5.14515 1.44933C5.32291 1.27385 5.4104 1.04772 5.38884 0.819484C5.36728 0.591245 5.23839 0.379096 5.02984 0.22858C4.82128 0.0780641 4.54969 0.00118023 4.27337 0.0144339C3.99705 0.0276875 3.73802 0.130022 3.5519 0.299469L1.73024 2.02543C0.697281 3.00453 0.113357 4.25283 0.0805931 5.552L0.00022582 8.72288C-0.00264413 8.83774 0.0218661 8.95194 0.0723572 9.05897C0.122848 9.16599 0.198332 9.26374 0.294497 9.34664C0.390662 9.42954 0.505627 9.49596 0.632826 9.5421C0.760025 9.58825 0.896969 9.61323 1.03584 9.6156C1.17471 9.61797 1.31278 9.5977 1.44218 9.55594C1.57157 9.51418 1.68975 9.45174 1.78998 9.3722C1.8902 9.29266 1.9705 9.19758 2.0263 9.09237C2.08209 8.98716 2.11229 8.87389 2.11516 8.75903L2.19411 5.58932C2.21673 4.70036 2.6165 3.84628 3.32349 3.17647L5.14515 1.44933Z" fill="black"/>
<path fill-rule="evenodd" clip-rule="evenodd" d="M4.87455 7.61499C4.96924 6.36732 5.63525 5.1964 6.73699 4.3406C7.83873 3.4848 9.29339 3.00845 10.8048 3.00853H11.5902V2.13389C11.5902 1.82459 11.7387 1.52797 12.0031 1.30926C12.2675 1.09056 12.6262 0.967693 13.0001 0.967693C13.3741 0.967693 13.7327 1.09056 13.9971 1.30926C14.2615 1.52797 14.4101 1.82459 14.4101 2.13389V3.00853H15.1954C16.7068 3.00845 18.1615 3.4848 19.2632 4.3406C20.365 5.1964 21.031 6.36732 21.1257 7.61499L21.4373 11.7363C21.556 13.3077 22.1939 14.822 23.2815 16.1142C23.5062 16.3813 23.6435 16.692 23.68 17.016C23.7166 17.3401 23.6511 17.6664 23.49 17.9633C23.3289 18.2602 23.0777 18.5175 22.7607 18.7103C22.4437 18.9031 22.0719 19.0248 21.6812 19.0635L16.8775 19.5393V20.793C16.8775 21.6435 16.469 22.4592 15.7418 23.0607C15.0147 23.6621 14.0285 24 13.0001 24C11.9718 24 10.9855 23.6621 10.2584 23.0607C9.53125 22.4592 9.12274 21.6435 9.12274 20.793V19.5393L4.31903 19.0623C3.9286 19.0235 3.55696 18.9018 3.24019 18.7091C2.92343 18.5164 2.67232 18.2592 2.51126 17.9625C2.35019 17.6657 2.28466 17.3396 2.32101 17.0158C2.35736 16.6919 2.49437 16.3813 2.71873 16.1142C3.80623 14.822 4.44413 13.3077 4.56295 11.7363L4.87455 7.61499ZM10.8048 4.75782C9.83135 4.75772 8.89443 5.06449 8.18481 5.61568C7.47519 6.16687 7.04623 6.92103 6.98525 7.72461L6.67506 11.8459C6.53173 13.7363 5.76411 15.5579 4.45579 17.1125C4.43953 17.1318 4.42959 17.1543 4.42694 17.1777C4.42428 17.2011 4.429 17.2247 4.44064 17.2462C4.45228 17.2677 4.47044 17.2863 4.49335 17.3003C4.51626 17.3142 4.54315 17.3231 4.57141 17.3259L9.84041 17.8495C11.9398 18.0571 14.0604 18.0571 16.1598 17.8495L21.4288 17.3259C21.4571 17.3231 21.484 17.3142 21.5069 17.3003C21.5298 17.2863 21.5479 17.2677 21.5596 17.2462C21.5712 17.2247 21.5759 17.2011 21.5733 17.1777C21.5706 17.1543 21.5607 17.1318 21.5444 17.1125C20.2365 15.5578 19.4694 13.7362 19.3266 11.8459L19.015 7.72461C18.954 6.92103 18.525 6.16687 17.8154 5.61568C17.1058 5.06449 16.1689 4.75772 15.1954 4.75782H10.8048ZM13.0001 22.2507C12.0272 22.2507 11.2377 21.5976 11.2377 20.793V19.9183H14.7626V20.793C14.7626 21.5976 13.973 22.2507 13.0001 22.2507Z" fill="black"/>
<path d="M20.9564 0.215499C20.7451 0.368007 20.6158 0.583656 20.5968 0.815031C20.5777 1.0464 20.6706 1.27456 20.8549 1.44933L22.6765 3.1753C23.3833 3.84558 23.7826 4.7001 23.8045 5.58932L23.8848 8.75786C23.8906 8.98983 24.0076 9.2104 24.21 9.37104C24.4124 9.53167 24.6837 9.61923 24.9642 9.61443C25.2446 9.60964 25.5113 9.51289 25.7055 9.34547C25.8997 9.17805 26.0056 8.95368 25.9998 8.72171L25.9194 5.552C25.8866 4.25282 25.3027 3.00453 24.2698 2.02543L22.4481 0.299465C22.2637 0.124756 22.003 0.0177657 21.7233 0.00202001C21.4435 -0.0137257 21.1677 0.0630622 20.9564 0.215499Z" fill="black"/>
</svg>
