<svg width="23" height="23" viewBox="0 0 23 23" fill="none" xmlns="http://www.w3.org/2000/svg">
<path d="M12.9701 5.87531C13.7325 6.24096 14.4205 6.7471 15.0035 7.36201C15.5714 7.96091 16.0398 8.66297 16.3806 9.43893M20.7558 8.23344C20.3397 6.54474 19.4972 5.03506 18.3551 3.83732C17.205 2.63127 15.7514 1.74152 14.1241 1.30385M6.04763 1C6.6245 1 8.93199 6.42507 8.93199 7.02785C8.93199 8.23342 7.20137 9.43899 6.6245 10.6446C6.04763 11.8501 7.20137 13.0557 8.35512 14.2613C8.81004 14.7366 10.6626 16.6724 11.8163 16.0696C12.9701 15.4668 14.1238 13.6585 15.2776 13.6585C15.8545 13.6585 21.0463 16.0696 21.0463 16.6724C21.0463 19.0836 19.3157 20.8919 17.5851 21.4947C15.8544 22.0975 14.7007 22.0975 12.3932 21.4947C10.0857 20.8919 8.35512 20.2891 5.47076 17.2752C2.5864 14.2613 2.00953 12.4529 1.43265 10.0418C0.855782 7.63064 0.855782 6.42507 1.43265 4.61671C2.00953 2.80836 3.74014 1 6.04763 1Z" stroke="white" stroke-width="2" stroke-linecap="round" stroke-linejoin="round"/>
</svg>
