<svg width="64" height="11" viewBox="0 0 64 11" fill="none" xmlns="http://www.w3.org/2000/svg">
<path d="M3.48426 10.091C2.87759 10.091 2.33159 9.987 1.84625 9.779C1.36092 9.56233 0.979588 9.259 0.702255 8.869C0.424922 8.479 0.286255 8.024 0.286255 7.504H1.87225C1.90692 7.894 2.05859 8.21467 2.32726 8.466C2.60459 8.71733 2.99025 8.843 3.48426 8.843C3.99559 8.843 4.39426 8.72167 4.68026 8.479C4.96626 8.22767 5.10926 7.907 5.10926 7.517C5.10926 7.21367 5.01826 6.96667 4.83626 6.776C4.66292 6.58533 4.44192 6.438 4.17326 6.334C3.91326 6.23 3.54926 6.11733 3.08125 5.996C2.49192 5.84 2.01092 5.684 1.63825 5.528C1.27425 5.36333 0.962255 5.112 0.702255 4.774C0.442255 4.436 0.312255 3.98533 0.312255 3.422C0.312255 2.902 0.442255 2.447 0.702255 2.057C0.962255 1.667 1.32625 1.368 1.79426 1.16C2.26226 0.951999 2.80392 0.847999 3.41926 0.847999C4.29459 0.847999 5.00959 1.069 5.56426 1.511C6.12759 1.94433 6.43959 2.54233 6.50026 3.305H4.86226C4.83626 2.97567 4.68025 2.694 4.39426 2.46C4.10826 2.226 3.73126 2.109 3.26325 2.109C2.83859 2.109 2.49192 2.21733 2.22326 2.434C1.95459 2.65067 1.82026 2.96267 1.82026 3.37C1.82026 3.64733 1.90259 3.877 2.06725 4.059C2.24059 4.23233 2.45725 4.371 2.71725 4.475C2.97725 4.579 3.33259 4.69167 3.78326 4.813C4.38126 4.97767 4.86659 5.14233 5.23925 5.307C5.62059 5.47167 5.94125 5.72733 6.20125 6.074C6.46992 6.412 6.60426 6.867 6.60426 7.439C6.60426 7.89833 6.47859 8.33167 6.22726 8.739C5.98459 9.14633 5.62492 9.47567 5.14825 9.727C4.68025 9.96967 4.12559 10.091 3.48426 10.091Z" fill="#EFFFFF"/>
<path d="M14.918 6.243C14.918 6.51167 14.9006 6.75433 14.866 6.971H9.39296C9.43629 7.543 9.64862 8.00233 10.03 8.349C10.4113 8.69567 10.8793 8.869 11.434 8.869C12.2313 8.869 12.7946 8.53533 13.124 7.868H14.723C14.5063 8.52667 14.112 9.06833 13.54 9.493C12.9766 9.909 12.2746 10.117 11.434 10.117C10.7493 10.117 10.134 9.96533 9.58796 9.662C9.05062 9.35 8.62596 8.91667 8.31396 8.362C8.01062 7.79867 7.85896 7.14867 7.85896 6.412C7.85896 5.67533 8.00629 5.02967 8.30096 4.475C8.60429 3.91167 9.02462 3.47833 9.56196 3.175C10.108 2.87167 10.732 2.72 11.434 2.72C12.11 2.72 12.7123 2.86733 13.241 3.162C13.7696 3.45667 14.1813 3.87267 14.476 4.41C14.7706 4.93867 14.918 5.54967 14.918 6.243ZM13.371 5.775C13.3623 5.229 13.1673 4.79133 12.786 4.462C12.4046 4.13267 11.9323 3.968 11.369 3.968C10.8576 3.968 10.42 4.13267 10.056 4.462C9.69196 4.78267 9.47529 5.22033 9.40596 5.775H13.371Z" fill="#EFFFFF"/>
<path d="M22.9414 6.243C22.9414 6.51167 22.9241 6.75433 22.8894 6.971H17.4164C17.4597 7.543 17.6721 8.00233 18.0534 8.349C18.4347 8.69567 18.9027 8.869 19.4574 8.869C20.2547 8.869 20.8181 8.53533 21.1474 7.868H22.7464C22.5297 8.52667 22.1354 9.06833 21.5634 9.493C21.0001 9.909 20.2981 10.117 19.4574 10.117C18.7727 10.117 18.1574 9.96533 17.6114 9.662C17.0741 9.35 16.6494 8.91667 16.3374 8.362C16.0341 7.79867 15.8824 7.14867 15.8824 6.412C15.8824 5.67533 16.0297 5.02967 16.3244 4.475C16.6277 3.91167 17.0481 3.47833 17.5854 3.175C18.1314 2.87167 18.7554 2.72 19.4574 2.72C20.1334 2.72 20.7357 2.86733 21.2644 3.162C21.7931 3.45667 22.2047 3.87267 22.4994 4.41C22.7941 4.93867 22.9414 5.54967 22.9414 6.243ZM21.3944 5.775C21.3857 5.229 21.1907 4.79133 20.8094 4.462C20.4281 4.13267 19.9557 3.968 19.3924 3.968C18.8811 3.968 18.4434 4.13267 18.0794 4.462C17.7154 4.78267 17.4987 5.22033 17.4294 5.775H21.3944Z" fill="#EFFFFF"/>
<path d="M27.2828 6.386C27.2828 5.66667 27.4301 5.02967 27.7248 4.475C28.0281 3.92033 28.4355 3.49133 28.9468 3.188C29.4668 2.876 30.0388 2.72 30.6628 2.72C31.2261 2.72 31.7158 2.83267 32.1318 3.058C32.5565 3.27467 32.8945 3.54767 33.1458 3.877V2.837H34.6408V10H33.1458V8.934C32.8945 9.272 32.5521 9.55367 32.1188 9.779C31.6855 10.0043 31.1915 10.117 30.6368 10.117C30.0215 10.117 29.4581 9.961 28.9468 9.649C28.4355 9.32833 28.0281 8.88633 27.7248 8.323C27.4301 7.751 27.2828 7.10533 27.2828 6.386ZM33.1458 6.412C33.1458 5.918 33.0418 5.489 32.8338 5.125C32.6345 4.761 32.3701 4.48367 32.0408 4.293C31.7115 4.10233 31.3561 4.007 30.9748 4.007C30.5935 4.007 30.2381 4.10233 29.9088 4.293C29.5795 4.475 29.3108 4.748 29.1028 5.112C28.9035 5.46733 28.8038 5.892 28.8038 6.386C28.8038 6.88 28.9035 7.31333 29.1028 7.686C29.3108 8.05867 29.5795 8.34467 29.9088 8.544C30.2468 8.73467 30.6021 8.83 30.9748 8.83C31.3561 8.83 31.7115 8.73467 32.0408 8.544C32.3701 8.35333 32.6345 8.076 32.8338 7.712C33.0418 7.33933 33.1458 6.906 33.1458 6.412Z" fill="#EFFFFF"/>
<path d="M38.0693 0.38V10H36.5873V0.38H38.0693Z" fill="#EFFFFF"/>
<path d="M41.4971 0.38V10H40.0151V0.38H41.4971Z" fill="#EFFFFF"/>
<path d="M58.2716 0.252229L63.7181 4.92603C63.8986 5.08097 64 5.29107 64 5.51015C64 5.72923 63.8986 5.93934 63.7181 6.09427L58.2716 10.7681C58.09 10.9186 57.8468 11.0019 57.5943 11C57.3419 10.9981 57.1004 10.9112 56.9219 10.758C56.7434 10.6048 56.6421 10.3976 56.6399 10.181C56.6377 9.96435 56.7348 9.75566 56.9102 9.59983L60.7132 6.33635H47.9628C47.7075 6.33635 47.4626 6.2493 47.282 6.09436C47.1015 5.93942 47 5.72927 47 5.51015C47 5.29103 47.1015 5.08088 47.282 4.92594C47.4626 4.771 47.7075 4.68395 47.9628 4.68395H60.7132L56.9102 1.42047C56.8182 1.34426 56.7449 1.25309 56.6944 1.15229C56.6439 1.05149 56.6174 0.943079 56.6163 0.833377C56.6152 0.723675 56.6395 0.614882 56.6879 0.513345C56.7363 0.411808 56.8078 0.319562 56.8982 0.241988C56.9886 0.164414 57.0961 0.103066 57.2144 0.0615243C57.3328 0.0199823 57.4595 -0.000922086 57.5874 3.11942e-05C57.7152 0.000984475 57.8416 0.0237762 57.959 0.0670764C58.0765 0.110377 58.1827 0.173318 58.2716 0.252229Z" fill="#EFFFFF"/>
</svg>
