<svg width="35" height="27" viewBox="0 0 35 27" fill="none" xmlns="http://www.w3.org/2000/svg">
<path d="M11.9999 13.206C11.9999 14.2851 12.5794 15.32 13.6109 16.083C14.6423 16.8461 16.0412 17.2747 17.4999 17.2747C18.9586 17.2747 20.3576 16.8461 21.389 16.083C22.4205 15.32 22.9999 14.2851 22.9999 13.206C22.9999 12.127 22.4205 11.0921 21.389 10.329C20.3576 9.56601 18.9586 9.13735 17.4999 9.13735C16.0412 9.13735 14.6423 9.56601 13.6109 10.329C12.5794 11.0921 11.9999 12.127 11.9999 13.206Z" stroke="black" stroke-width="2" stroke-linecap="round" stroke-linejoin="round"/>
<path d="M14.4292 2.78615C15.2102 0.404616 19.7898 0.404616 20.5708 2.78615C20.688 3.14392 20.9177 3.47617 21.2413 3.75585C21.5649 4.03554 21.9731 4.25475 22.4329 4.39565C22.8926 4.53655 23.3908 4.59516 23.8869 4.5667C24.3831 4.53824 24.8631 4.42353 25.288 4.23189C28.1168 2.95704 31.3563 5.35213 29.633 7.44615C29.3743 7.76033 29.2195 8.11523 29.1811 8.482C29.1427 8.84877 29.2219 9.21707 29.4121 9.55696C29.6024 9.89684 29.8984 10.1987 30.276 10.4381C30.6536 10.6774 31.1023 10.8474 31.5855 10.9344C34.8048 11.5121 34.8048 14.9 31.5855 15.4777C31.1019 15.5644 30.6527 15.7344 30.2747 15.9737C29.8966 16.2131 29.6003 16.5151 29.4098 16.8552C29.2193 17.1953 29.1401 17.5638 29.1786 17.9309C29.217 18.2979 29.3721 18.653 29.6312 18.9673C31.3545 21.06 28.1168 23.4564 25.2862 22.1816C24.8615 21.9902 24.3817 21.8757 23.8859 21.8473C23.3901 21.8189 22.8923 21.8774 22.4328 22.0182C21.9734 22.1589 21.5653 22.3779 21.2417 22.6572C20.9182 22.9366 20.6883 23.2685 20.5708 23.6259C19.7898 26.0075 15.2102 26.0075 14.4292 23.6259C14.312 23.2682 14.0823 22.9359 13.7587 22.6562C13.4351 22.3766 13.0269 22.1573 12.5671 22.0164C12.1074 21.8755 11.6092 21.8169 11.1131 21.8454C10.6169 21.8739 10.1369 21.9886 9.712 22.1802C6.88317 23.4551 3.64367 21.06 5.367 18.9659C5.62569 18.6518 5.78051 18.2969 5.81889 17.9301C5.85726 17.5633 5.77811 17.195 5.58787 16.8551C5.39762 16.5153 5.10164 16.2134 4.724 15.974C4.34636 15.7347 3.8977 15.5647 3.4145 15.4777C0.195167 14.9 0.195167 11.5121 3.4145 10.9344C3.89813 10.8477 4.34726 10.6777 4.72533 10.4384C5.1034 10.199 5.39973 9.897 5.5902 9.55691C5.78067 9.21682 5.85989 8.84827 5.82143 8.48124C5.78296 8.11422 5.62789 7.7591 5.36883 7.44479C3.6455 5.35213 6.88317 2.95568 9.71383 4.23053C11.5472 5.05512 13.9232 4.32547 14.4292 2.78615Z" stroke="black" stroke-width="2" stroke-linecap="round" stroke-linejoin="round"/>
</svg>
