<svg width="23" height="16" viewBox="0 0 23 16" fill="none" xmlns="http://www.w3.org/2000/svg">
<path d="M22.5 13.2135C22.5 13.3764 22.4111 13.5327 22.2529 13.6479C22.0946 13.7631 21.88 13.8278 21.6562 13.8278H15.9187C15.7308 14.3381 15.317 14.7889 14.7414 15.1104C14.1657 15.4319 13.4605 15.6062 12.735 15.6062C12.0095 15.6062 11.3043 15.4319 10.7287 15.1104C10.153 14.7889 9.73917 14.3381 9.55125 13.8278H0.84375C0.619974 13.8278 0.405362 13.7631 0.247129 13.6479C0.0888947 13.5327 0 13.3764 0 13.2135C0 13.0505 0.0888947 12.8943 0.247129 12.7791C0.405362 12.6639 0.619974 12.5991 0.84375 12.5991H9.55125C9.73917 12.0889 10.153 11.6381 10.7287 11.3166C11.3043 10.995 12.0095 10.8208 12.735 10.8208C13.4605 10.8208 14.1657 10.995 14.7414 11.3166C15.317 11.6381 15.7308 12.0889 15.9187 12.5991H21.6562C21.88 12.5991 22.0946 12.6639 22.2529 12.7791C22.4111 12.8943 22.5 13.0505 22.5 13.2135ZM22.5 2.39273C22.5 2.55567 22.4111 2.71193 22.2529 2.82714C22.0946 2.94236 21.88 3.00708 21.6562 3.00708H18.9C18.7121 3.5173 18.2982 3.96812 17.7226 4.28966C17.147 4.61119 16.4417 4.78546 15.7163 4.78546C14.9908 4.78546 14.2855 4.61119 13.7099 4.28966C13.1343 3.96812 12.7204 3.5173 12.5325 3.00708H0.84375C0.732947 3.00708 0.623229 2.99119 0.520861 2.96032C0.418492 2.92944 0.325478 2.88419 0.247129 2.82714C0.168779 2.7701 0.106629 2.70237 0.0642266 2.62783C0.0218242 2.5533 0 2.47341 0 2.39273C0 2.31205 0.0218242 2.23217 0.0642266 2.15763C0.106629 2.08309 0.168779 2.01537 0.247129 1.95832C0.325478 1.90127 0.418492 1.85602 0.520861 1.82515C0.623229 1.79427 0.732947 1.77838 0.84375 1.77838H12.5325C12.7204 1.26816 13.1343 0.817339 13.7099 0.495808C14.2855 0.174276 14.9908 0 15.7163 0C16.4417 0 17.147 0.174276 17.7226 0.495808C18.2982 0.817339 18.7121 1.26816 18.9 1.77838H21.6562C21.7675 1.77728 21.8779 1.79242 21.9809 1.8229C22.084 1.85339 22.1776 1.8986 22.2562 1.95587C22.3349 2.01313 22.397 2.0813 22.4389 2.15633C22.4807 2.23137 22.5015 2.31175 22.5 2.39273ZM22.5 7.79901C22.5015 7.87999 22.4807 7.96038 22.4389 8.03541C22.397 8.11045 22.3349 8.17861 22.2562 8.23588C22.1776 8.29315 22.084 8.33836 21.9809 8.36884C21.8779 8.39933 21.7675 8.41446 21.6562 8.41336H8.49375C8.30583 8.92358 7.89197 9.3744 7.31635 9.69594C6.74073 10.0175 6.0355 10.1917 5.31 10.1917C4.5845 10.1917 3.87927 10.0175 3.30365 9.69594C2.72803 9.3744 2.31417 8.92358 2.12625 8.41336H0.84375C0.619974 8.41336 0.405362 8.34864 0.247129 8.23342C0.0888947 8.11821 0 7.96195 0 7.79901C0 7.63608 0.0888947 7.47981 0.247129 7.3646C0.405362 7.24939 0.619974 7.18466 0.84375 7.18466H2.12625C2.31417 6.67444 2.72803 6.22362 3.30365 5.90209C3.87927 5.58055 4.5845 5.40628 5.31 5.40628C6.0355 5.40628 6.74073 5.58055 7.31635 5.90209C7.89197 6.22362 8.30583 6.67444 8.49375 7.18466H21.6562C21.88 7.18466 22.0946 7.24939 22.2529 7.3646C22.4111 7.47981 22.5 7.63608 22.5 7.79901Z" fill="black"/>
</svg>
