<svg width="23" height="19" viewBox="0 0 23 19" fill="none" xmlns="http://www.w3.org/2000/svg">
<path d="M21 17L16.4158 13.3809M16.4158 13.3809C17.1999 12.7618 17.8219 12.0269 18.2463 11.218C18.6707 10.4092 18.8891 9.54225 18.8891 8.66676C18.8891 7.79127 18.6707 6.92435 18.2463 6.1155C17.8219 5.30665 17.1999 4.57172 16.4158 3.95265C15.6316 3.33358 14.7007 2.84251 13.6762 2.50748C12.6516 2.17244 11.5535 2 10.4446 2C9.33561 2 8.23751 2.17244 7.21297 2.50748C6.18843 2.84251 5.25751 3.33358 4.47336 3.95265C2.88969 5.20291 2 6.89863 2 8.66676C2 10.4349 2.88969 12.1306 4.47336 13.3809C6.05702 14.6311 8.20493 15.3335 10.4446 15.3335C12.6842 15.3335 14.8321 14.6311 16.4158 13.3809Z" stroke="black" stroke-opacity="0.5" stroke-width="2.5" stroke-linecap="round" stroke-linejoin="round"/>
</svg>
