<svg width="19" height="9" viewBox="0 0 19 9" fill="none" xmlns="http://www.w3.org/2000/svg">
<path d="M12.5976 0.200348L18.6849 3.9128C18.8867 4.03587 19 4.20276 19 4.37677C19 4.55079 18.8867 4.71768 18.6849 4.84075L12.5976 8.5532C12.3946 8.67274 12.1228 8.73889 11.8407 8.7374C11.5585 8.7359 11.2886 8.66688 11.0891 8.54521C10.8896 8.42353 10.7765 8.25893 10.774 8.08687C10.7715 7.9148 10.88 7.74903 11.076 7.62525L15.3265 5.03303H1.07607C0.790681 5.03303 0.516977 4.96389 0.315175 4.84082C0.113372 4.71775 0 4.55083 0 4.37677C0 4.20272 0.113372 4.0358 0.315175 3.91273C0.516977 3.78966 0.790681 3.72052 1.07607 3.72052H15.3265L11.076 1.1283C10.9732 1.06776 10.8913 0.995344 10.8349 0.915278C10.7785 0.835212 10.7488 0.749098 10.7476 0.661961C10.7463 0.574823 10.7735 0.488407 10.8276 0.407756C10.8818 0.327104 10.9617 0.253832 11.0627 0.192214C11.1637 0.130596 11.2839 0.0818667 11.4161 0.0488694C11.5484 0.0158722 11.6901 -0.000732423 11.8329 2.47779e-05C11.9758 0.000781979 12.117 0.0188857 12.2483 0.0532795C12.3796 0.0876734 12.4983 0.137669 12.5976 0.200348Z" fill="#F8E329"/>
</svg>
