<svg width="10" height="13" viewBox="0 0 10 13" fill="none" xmlns="http://www.w3.org/2000/svg">
<path d="M1.60182 13C1.28499 12.9999 0.975296 12.9271 0.711886 12.7907C0.448475 12.6543 0.243175 12.4605 0.121939 12.2337C0.00070354 12.007 -0.0310244 11.7575 0.030767 11.5167C0.0925584 11.276 0.245094 11.0549 0.469091 10.8813L6.13273 6.49237L0.469091 2.10348C0.177245 1.86939 0.0157563 1.55586 0.0194067 1.23042C0.0230571 0.904978 0.191554 0.593669 0.488608 0.36354C0.785661 0.133411 1.1875 0.0028749 1.60758 4.69205e-05C2.02767 -0.00278106 2.43238 0.122326 2.73455 0.348421L9.53091 5.61484C9.83127 5.8476 10 6.16325 10 6.49237C10 6.8215 9.83127 7.13714 9.53091 7.3699L2.73455 12.6363C2.58596 12.7518 2.40941 12.8433 2.21502 12.9057C2.02063 12.9681 1.81224 13.0002 1.60182 13Z" fill="black"/>
</svg>
