<svg width="21" height="15" viewBox="0 0 21 15" fill="none" xmlns="http://www.w3.org/2000/svg">
<path d="M2.25 14.7444C1.63125 14.7444 1.10175 14.5841 0.6615 14.2636C0.22125 13.943 0.00075 13.5572 0 13.1061V9.8296H2.25V13.1061H6.75V14.7444H2.25ZM13.5 14.7444V13.1061H18V9.8296H20.25V13.1061C20.25 13.5567 20.0299 13.9425 19.5896 14.2636C19.1494 14.5847 18.6195 14.7449 18 14.7444H13.5ZM0 4.9148V1.63827C0 1.18774 0.2205 0.802204 0.6615 0.48165C1.1025 0.161096 1.632 0.000546089 2.25 0H6.75V1.63827H2.25V4.9148H0ZM18 4.9148V1.63827H13.5V0H18C18.6187 0 19.1486 0.16055 19.5896 0.48165C20.0306 0.802751 20.2507 1.18829 20.25 1.63827V4.9148H18ZM10.125 9.8296C9.1875 9.8296 8.39062 9.59068 7.73438 9.11286C7.07812 8.63503 6.75 8.05481 6.75 7.3722C6.75 6.68959 7.07812 6.10937 7.73438 5.63154C8.39062 5.15371 9.1875 4.9148 10.125 4.9148C11.0625 4.9148 11.8594 5.15371 12.5156 5.63154C13.1719 6.10937 13.5 6.68959 13.5 7.3722C13.5 8.05481 13.1719 8.63503 12.5156 9.11286C11.8594 9.59068 11.0625 9.8296 10.125 9.8296Z" fill="black"/>
</svg>
