<svg width="32" height="7" viewBox="0 0 32 7" fill="none" xmlns="http://www.w3.org/2000/svg">
<path d="M31.872 1.7836V0H25.664C24.368 0 23.784 0.84531 23.688 1.66526V1.69062V0H21.864V1.7836H23.68H31.872ZM23.68 2.42604L21.856 2.31615V4.37025C21.856 5.01269 21.552 5.20711 20.496 5.20711H19.04C18.168 5.20711 17.8 4.94506 17.8 4.37025V2.12173L15.952 1.97802V4.53086H15.912C15.808 3.78699 15.544 2.92477 13.784 2.79798L8 2.39223C8 3.33052 8.632 3.88843 9.624 3.99832L13.656 4.42943C13.976 4.45478 14.208 4.55622 14.208 4.83517C14.208 5.13949 13.968 5.1733 13.6 5.1733H7.928V2.39223L6.08 2.26543V6.98226H13.608C15.288 6.98226 15.824 6.06087 15.904 5.29164H15.944C16.152 6.50889 17.16 6.98226 18.864 6.98226H20.744C22.736 6.98226 23.68 6.33983 23.68 4.83517V2.42604ZM29.544 2.78952L23.76 2.42604C23.76 3.36433 24.344 3.98986 25.336 4.07439L29.456 4.41252C29.776 4.43788 29.968 4.52241 29.968 4.80136C29.968 5.06341 29.744 5.16484 29.28 5.16484H23.664V6.98226H29.4C31.208 6.98226 32 6.31447 32 4.79291C32 3.42351 31.288 2.90787 29.544 2.78952ZM15.952 0H17.8V1.7836H15.952V0ZM5.064 2.1809L3.056 1.96957L0 6.98226H2.248L5.064 2.1809ZM15.616 0H9.976C8.664 0 8.088 0.862216 7.952 1.69062V0H4.824C4.384 0 4.176 0.143703 3.968 0.46492L3.104 1.7836H15.616V0Z" fill="black"/>
</svg>
